Coordinates
version=1
nRows=8
nColumns=40
inDegrees=yes

Units are S.I. units (second, meters, Newtons, ...)
Angles are in degrees.

endheader
time	pelvis_tilt	pelvis_list	pelvis_rotation	pelvis_tx	pelvis_ty	pelvis_tz	hip_flexion_r	hip_adduction_r	hip_rotation_r	knee_angle_r	knee_angle_r_beta	ankle_angle_r	subtalar_angle_r	mtp_angle_r	hip_flexion_l	hip_adduction_l	hip_rotation_l	knee_angle_l	knee_angle_l_beta	ankle_angle_l	subtalar_angle_l	mtp_angle_l	lumbar_extension	lumbar_bending	lumbar_rotation	arm_flex_r	arm_add_r	arm_rot_r	elbow_flex_r	pro_sup_r	wrist_flex_r	wrist_dev_r	arm_flex_l	arm_add_l	arm_rot_l	elbow_flex_l	pro_sup_l	wrist_flex_l	wrist_dev_l
     55.03500000	     -4.78046786	     -5.62710264	     -6.52001790	      1.07346424	      0.93056937	      0.42791547	     24.56429529	      0.78353278	    -11.27567730	     10.56948037	     10.56948037	      3.93409619	      9.90117353	      7.60082668	      5.20856145	     -7.28030506	    -11.87842925	     16.81402100	     16.81402100	     15.69211541	    -13.09178360	     -1.67510004	    -10.79088478	      5.53628482	      1.38407162	     -3.96211496	    -14.46358738	    -10.79236773	     26.12818346	     47.20049518	      0.00000000	      0.00000000	     19.75560280	    -17.17040238	     -2.63711125	     71.22757624	     46.73204265	      0.00000000	      0.00000000
     55.04835714	     -4.90482833	     -5.53741808	     -6.51365661	      1.07497646	      0.92936629	      0.42990861	     24.29213612	      0.99586623	    -11.62420294	     10.60676668	     10.60676668	      3.84496142	      9.78754905	      7.60351118	      4.83279686	     -7.27489415	    -11.87672020	     16.78625634	     16.78625634	     16.02375652	    -13.13148599	     -1.77836315	    -10.46975924	      5.45804663	      1.31632571	     -3.91661385	    -14.21196213	    -10.77530304	     26.18208626	     47.19534415	      0.00000000	      0.00000000	     19.81348914	    -17.02092368	     -2.57377197	     71.27471489	     46.73015855	      0.00000000	      0.00000000
     55.06171429	     -4.64603055	     -5.54998858	     -6.42826255	      1.07715089	      0.92885924	      0.43209607	     23.34784107	      1.23084108	    -12.30088972	     10.60309106	     10.60309106	      3.34970102	     10.17053143	      6.27525758	      3.76610487	     -7.37039035	    -12.28716416	     16.34703655	     16.34703655	     16.49198795	    -12.22422390	     -1.64238200	    -10.54200592	      5.44172802	      1.45914211	     -4.01940760	    -13.78678743	    -10.95610615	     26.67455586	     47.16565944	      0.00000000	      0.00000000	     19.91872619	    -16.63944186	     -2.36060378	     71.30637791	     46.74250480	      0.00000000	      0.00000000
     55.07507143	     -4.74419098	     -5.56491168	     -6.26373273	      1.07900011	      0.92750373	      0.43429604	     23.13130375	      1.45170460	    -12.21303285	     11.38526185	     11.38526185	      2.71321690	      9.22102395	      4.46551700	      3.45734157	     -7.53993047	    -12.18395284	     16.54505848	     16.54505848	     17.17006067	    -11.92783221	     -1.42038376	    -10.21425029	      5.52742906	      1.41223988	     -4.00195630	    -13.44678051	    -11.08634447	     27.14515165	     47.13389546	      0.00000000	      0.00000000	     19.85395764	    -16.37118742	     -2.24223927	     71.10652908	     46.75622863	      0.00000000	      0.00000000
     55.08842857	     -4.66925858	     -5.69691572	     -6.05731206	      1.08130385	      0.92664871	      0.43653030	     22.49850362	      1.73702650	    -12.35986268	     11.97143249	     11.97143249	      2.56070094	      8.89746925	      4.13593199	      2.83208744	     -7.78883891	    -12.03425942	     16.52785185	     16.52785185	     17.46885387	    -11.84509938	     -1.40523717	    -10.02809385	      5.80522471	      1.36351007	     -3.82037724	    -13.06353506	    -11.04705637	     27.28246052	     47.12269724	      0.00000000	      0.00000000	     19.58741431	    -15.95410527	     -2.08529704	     71.02288128	     46.74534455	      0.00000000	      0.00000000
     55.10178571	     -4.51216197	     -5.71109924	     -5.88691145	      1.08366427	      0.92560745	      0.43919396	     21.84772263	      2.05036084	    -11.49858467	     12.50038813	     12.50038813	      0.89831425	      6.88808703	     -1.04874172	      2.27376764	     -8.06886078	    -12.46258024	     16.93055127	     16.93055127	     18.89028704	    -10.60505924	      0.11408357	     -9.95583161	      5.78901901	      1.43983513	     -3.94118991	    -12.88876303	    -11.03101554	     28.34618427	     47.01903356	      0.00000000	      0.00000000	     19.51167925	    -15.52915546	     -2.36669219	     70.53304131	     46.81844899	      0.00000000	      0.00000000
     55.11514286	     -4.34171835	     -5.79836351	     -5.66117815	      1.08604250	      0.92487307	      0.44166489	     21.37085548	      2.22654618	    -11.33730917	     13.51471307	     13.51471307	      1.12378795	      6.37825765	     -1.50832667	      1.62956653	     -8.30825815	    -12.28631150	     17.06120081	     17.06120081	     19.22138469	    -10.55194268	      0.14903227	     -9.92301652	      5.94441293	      1.42164654	     -3.56977092	    -12.68472369	    -10.96403992	     28.56285316	     47.00144191	      0.00000000	      0.00000000	     19.12803591	    -15.27998129	     -2.25213636	     70.28034213	     46.81023041	      0.00000000	      0.00000000
     55.12850000	     -4.22865906	     -5.82719781	     -5.42182867	      1.08830432	      0.92415121	      0.44425168	     21.09013207	      2.37972280	    -10.83764227	     14.61495059	     14.61495059	      1.39550914	      5.23554993	     -2.14104621	      1.24017928	     -8.57231385	    -12.24244700	     17.52600822	     17.52600822	     19.59277789	    -10.40673954	      0.31514390	     -9.78754458	      6.02398999	      1.32011924	     -3.14145111	    -12.45967856	    -10.82343365	     28.92890332	     46.96868639	      0.00000000	      0.00000000	     18.65900492	    -15.00933149	     -2.27296827	     69.78775858	     46.81076183	      0.00000000	      0.00000000
